<svg xmlns="http://www.w3.org/2000/svg" xmlns:xlink="http://www.w3.org/1999/xlink" viewBox="0 268.04 1920 1348.04"><defs><style>.cls-1{fill:#331e75;}.cls-2{fill:#2b1861;}.cls-3{fill:#221356;}.cls-4{fill:#1a0d41;}.cls-5,.cls-6,.cls-7,.cls-8{fill:none;}.cls-5{stroke:#7643d4;stroke-width:3px;}.cls-10,.cls-11,.cls-5,.cls-6,.cls-7,.cls-8,.cls-9{stroke-miterlimit:10;}.cls-6,.cls-8{stroke:#fff;}.cls-6{stroke-width:8px;}.cls-7{stroke:#ef78a2;}.cls-10,.cls-11,.cls-7,.cls-9{stroke-width:6px;}.cls-8{stroke-width:4px;}.cls-9{fill:url(#linear-gradient);stroke:url(#linear-gradient-2);}.cls-10{fill:url(#linear-gradient-3);stroke:url(#linear-gradient-4);}.cls-11{fill:url(#linear-gradient-5);stroke:url(#linear-gradient-6);}.cls-12{fill:url(#linear-gradient-7);}.cls-13{fill:#ed4c88;opacity:0.24;}.cls-14{fill:#fff;}</style><linearGradient id="linear-gradient" x1="610.53" y1="402.28" x2="755.53" y2="402.28" gradientTransform="matrix(1.3, -0.02, -0.46, 1.16, -16.64, 203.97)" gradientUnits="userSpaceOnUse"><stop offset="0" stop-color="#ed4c88"/><stop offset="1" stop-opacity="0"/></linearGradient><linearGradient id="linear-gradient-2" x1="608.51" y1="402.28" x2="757.55" y2="402.28" gradientTransform="matrix(1.3, -0.02, -0.46, 1.16, -16.64, 203.97)" gradientUnits="userSpaceOnUse"><stop offset="0" stop-color="#ed4c91"/><stop offset="1" stop-opacity="0"/></linearGradient><linearGradient id="linear-gradient-3" x1="105.61" y1="643.19" x2="250.61" y2="643.19" gradientTransform="matrix(1.33, -0.1, -0.44, 1.21, 771.59, 338.97)" xlink:href="#linear-gradient"/><linearGradient id="linear-gradient-4" x1="103.59" y1="643.19" x2="252.63" y2="643.19" gradientTransform="matrix(1.33, -0.1, -0.44, 1.21, 771.59, 338.97)" xlink:href="#linear-gradient-2"/><linearGradient id="linear-gradient-5" x1="-394.77" y1="153.2" x2="-249.77" y2="153.2" gradientTransform="matrix(1.01, 0.13, -0.17, 1, 1607.13, 784.8)" xlink:href="#linear-gradient"/><linearGradient id="linear-gradient-6" x1="-396.79" y1="153.2" x2="-247.75" y2="153.2" gradientTransform="matrix(1.01, 0.13, -0.17, 1, 1607.13, 784.8)" xlink:href="#linear-gradient-2"/><linearGradient id="linear-gradient-7" x1="1252.8" y1="322.01" x2="2172.8" y2="322.01" gradientTransform="translate(-468.34 -172.89) scale(1.13 1)" gradientUnits="userSpaceOnUse"><stop offset="0" stop-color="#ed4c88" stop-opacity="0.3"/><stop offset="1" stop-opacity="0"/></linearGradient></defs><g id="Layer_2" data-name="Layer 2"><rect class="cls-1" x="1" y="268.04" width="1920" height="1080"/><path class="cls-1" d="M1457,857" transform="translate(1 268.04)"/></g><g id="Layer_5" data-name="Layer 5"><path class="cls-2" d="M42,1080c76.41-118,202.1-267.54,396-331,121.19-39.66,192-20.51,279-38,154-31,372.12-195.64,551-711h652V1080Z" transform="translate(1 268.04)"/></g><g id="Layer_4" data-name="Layer 4"><path class="cls-3" d="M193,1080c18.59-43.85,51.2-99.36,109-122,35.13-13.76,65.35-9.81,90-8,94.31,6.94,130.2-15.74,261-37,208.74-33.93,237.82,4.24,333-22,245.67-67.71,222.94-369.09,497-569,81.1-59.16,216.37-217,437-230v988Z" transform="translate(1 268.04)"/></g><g id="Layer_3" data-name="Layer 3"><path class="cls-4" d="M807,1080c18.06-37.13,49.75-86.82,101-99,30.92-7.35,57,1.8,67,5,95.91,30.9,283.32,24.12,370-11,178.84-72.46,121.21-343.46,292-421,91.66-41.61,199.94-5.18,283,37v489Z" transform="translate(1 268.04)"/></g><g id="Layer_6" data-name="Layer 6"><path class="cls-5" d="M3,548c337.88-122,457.59-68.76,567-8,22.51,12.5,73.38,44.74,167,95,244,131,194,107,265,126,96.56,25.84,259.46-47.39,366-111,112.52-67.18,288.61-136.73,560-133" transform="translate(1 268.04)"/><path class="cls-5" d="M0,775c45.93-40.77,195.21-162.82,425.44-181,272.05-21.49,364.61,221,538.12,176,195-50.6,165.61-352.82,513.9-657A1332,1332,0,0,1,1627,0" transform="translate(1 268.04)"/><path class="cls-5" d="M0,790C206.5,954.66,379,992.46,493,999c374.53,21.49,539.87-270.07,823-173,171.31,58.73,243.17,210.86,418,191,81.9-9.3,144.12-51.54,181-82" transform="translate(1 268.04)"/></g><g id="Layer_7" data-name="Layer 7"><circle class="cls-6" cx="1124" cy="423.04" r="25"/><circle class="cls-7" cx="220" cy="848.04" r="17"/><circle class="cls-7" cx="1645" cy="1282.04" r="17"/></g><g id="Layer_8" data-name="Layer 8"><path class="cls-8" d="M349,139.5a.5.5,0,0,1-.5.5H335v13.5a.5.5,0,0,1-1,0V140H319.5a.5.5,0,0,1,0-1H334V124.5a.5.5,0,0,1,1,0V139h13.5A.5.5,0,0,1,349,139.5Z" transform="translate(1 268.04)"/><path class="cls-8" d="M758.25,218a.48.48,0,0,1-.7,0L748,208.41,738.45,218a.48.48,0,0,1-.7,0,.5.5,0,0,1,0-.71l9.54-9.54L737,197.45a.48.48,0,0,1,0-.7.5.5,0,0,1,.71,0L748,207l10.25-10.25a.5.5,0,0,1,.71,0,.48.48,0,0,1,0,.7l-10.25,10.26,9.54,9.54A.5.5,0,0,1,758.25,218Z" transform="translate(1 268.04)"/><path class="cls-8" d="M1750.8,751.21a.5.5,0,0,1-.71,0l-9.54-9.54-9.55,9.54a.5.5,0,0,1-.71,0,.5.5,0,0,1,0-.7l9.55-9.55-10.25-10.25a.5.5,0,0,1,0-.71.48.48,0,0,1,.7,0l10.26,10.25L1750.8,730a.5.5,0,0,1,.71.71L1741.25,741l9.55,9.55A.48.48,0,0,1,1750.8,751.21Z" transform="translate(1 268.04)"/><path class="cls-7" d="M1589.34,290.91a.5.5,0,0,1-.5.5h-13.5v13.5a.5.5,0,1,1-1,0v-13.5h-14.5a.5.5,0,0,1,0-1h14.5v-14.5a.5.5,0,0,1,1,0v14.5h13.5A.5.5,0,0,1,1589.34,290.91Z" transform="translate(1 268.04)"/></g><g id="Layer_10" data-name="Layer 10"><line class="cls-9" x1="560.72" y1="734.74" x2="808.72" y2="577.74"/><line class="cls-10" x1="599.72" y1="1182.74" x2="850.72" y2="1008.74"/><line class="cls-11" x1="1168.72" y1="951.74" x2="1338.72" y2="838.74"/><path class="cls-12" d="M1068.17,25.12h913.28a0,0,0,0,1,0,0v248a0,0,0,0,1,0,0H1068.17a124,124,0,0,1-124-124v0a124,124,0,0,1,124-124Z" transform="translate(219.61 1200.76) rotate(-38.02)"/><circle class="cls-13" cx="1154" cy="665.04" r="78"/></g><g id="Layer_9" data-name="Layer 9"><circle class="cls-14" cx="456" cy="612.04" r="5"/><circle class="cls-14" cx="790.5" cy="821.54" r="2.5"/><circle class="cls-14" cx="208" cy="1140.04" r="5"/><circle class="cls-14" cx="1014" cy="562.04" r="5"/><circle class="cls-14" cx="1757.5" cy="719.54" r="2.5"/><circle class="cls-14" cx="1494" cy="1058.04" r="5"/></g></svg>