<svg xmlns="http://www.w3.org/2000/svg" xmlns:xlink="http://www.w3.org/1999/xlink" viewBox="0 0 1920 1080 "><defs><style>.cls-1{fill:#331e75;}.cls-2{fill:#2b1861;}.cls-3{fill:#221356;}.cls-4{fill:#1a0d41;}.cls-5,.cls-7,.cls-8,.cls-9{fill:none;}.cls-5{stroke:#7643d4;stroke-width:3px;}.cls-11,.cls-12,.cls-13,.cls-5,.cls-7,.cls-8,.cls-9{stroke-miterlimit:10;}.cls-6{fill:#7643d4;}.cls-7,.cls-9{stroke:#fff;}.cls-7{stroke-width:8px;}.cls-8{stroke:#ef78a2;}.cls-11,.cls-12,.cls-13,.cls-8{stroke-width:6px;}.cls-9{stroke-width:4px;}.cls-10{fill:url(#linear-gradient);}.cls-11{fill:url(#linear-gradient-2);stroke:url(#linear-gradient-3);}.cls-12{fill:url(#linear-gradient-4);stroke:url(#linear-gradient-5);}.cls-13{fill:url(#linear-gradient-6);stroke:url(#linear-gradient-7);}.cls-14{fill:#ed4c88;opacity:0.24;}.cls-15{fill:#fff;}</style><linearGradient id="linear-gradient" x1="1252.8" y1="322.01" x2="2068.17" y2="322.01" gradientTransform="matrix(0.89, -0.69, 0.62, 0.79, -256.81, 1085.02)" gradientUnits="userSpaceOnUse"><stop offset="0" stop-color="#ed4c88" stop-opacity="0.3"/><stop offset="1" stop-opacity="0"/></linearGradient><linearGradient id="linear-gradient-2" x1="610.53" y1="402.28" x2="755.53" y2="402.28" gradientTransform="matrix(1.3, -0.02, -0.46, 1.16, -17.62, -64.06)" gradientUnits="userSpaceOnUse"><stop offset="0" stop-color="#ed4c88"/><stop offset="1" stop-opacity="0"/></linearGradient><linearGradient id="linear-gradient-3" x1="608.51" y1="402.28" x2="757.55" y2="402.28" gradientTransform="matrix(1.3, -0.02, -0.46, 1.16, -17.62, -64.06)" gradientUnits="userSpaceOnUse"><stop offset="0" stop-color="#ed4c91"/><stop offset="1" stop-opacity="0"/></linearGradient><linearGradient id="linear-gradient-4" x1="105.61" y1="643.19" x2="250.61" y2="643.19" gradientTransform="matrix(1.33, -0.1, -0.44, 1.21, 770.61, 70.93)" xlink:href="#linear-gradient-2"/><linearGradient id="linear-gradient-5" x1="103.59" y1="643.19" x2="252.63" y2="643.19" gradientTransform="matrix(1.33, -0.1, -0.44, 1.21, 770.61, 70.93)" xlink:href="#linear-gradient-3"/><linearGradient id="linear-gradient-6" x1="-394.77" y1="153.2" x2="-249.77" y2="153.2" gradientTransform="matrix(1.01, 0.13, -0.17, 1, 1606.14, 516.76)" xlink:href="#linear-gradient-2"/><linearGradient id="linear-gradient-7" x1="-396.79" y1="153.2" x2="-247.75" y2="153.2" gradientTransform="matrix(1.01, 0.13, -0.17, 1, 1606.14, 516.76)" xlink:href="#linear-gradient-3"/></defs><g id="Layer_2" data-name="Layer 2"><rect class="cls-1" x="0.01" width="1920" height="1080"/><path class="cls-1" d="M1457,857" transform="translate(0.01 0)"/></g><g id="Layer_5" data-name="Layer 5"><path class="cls-2" d="M42,1080c76.41-118,202.1-267.54,396-331,121.19-39.66,192-20.51,279-38,154-31,372.12-195.64,551-711h652V1080Z" transform="translate(0.01 0)"/></g><g id="Layer_4" data-name="Layer 4"><path class="cls-3" d="M193,1080c18.59-43.85,51.2-99.36,109-122,35.13-13.76,65.35-9.81,90-8,94.31,6.94,130.2-15.74,261-37,208.74-33.93,237.82,4.24,333-22,245.67-67.71,222.94-369.09,497-569,81.1-59.16,216.37-217,437-230v988Z" transform="translate(0.01 0)"/></g><g id="Layer_3" data-name="Layer 3"><path class="cls-4" d="M807,1080c18.06-37.13,49.75-86.82,101-99,30.92-7.35,57,1.8,67,5,95.91,30.9,283.32,24.12,370-11,178.84-72.46,121.21-343.46,292-421,91.66-41.61,199.94-5.18,283,37v489Z" transform="translate(0.01 0)"/></g><g id="Layer_6" data-name="Layer 6"><path class="cls-5" d="M.5,546.5c337.88-122,452.09-67.26,561.5-6.5,22.51,12.5,73.38,44.74,167,95C973,766,923,742,994,761c96.56,25.84,259.46-47.39,366-111,112.52-67.18,288.61-136.73,560-133" transform="translate(0.01 0)"/><path class="cls-6" d="M0,790l.94-1.17C93.4,862.56,187.87,917.59,281.7,952.39c70.81,26.26,140,41,211.39,45.11,80.32,4.62,158.15-4.87,238-29,70.32-21.26,132.67-50.64,193-79.06,64.71-30.5,125.84-59.31,189.32-74.23,71.16-16.73,135.72-13.76,203.16,9.36,69.06,23.68,121.34,62,171.89,99,37.27,27.32,72.46,53.11,111.6,70.78,43.85,19.79,86.39,26.49,133.85,21.1,62.57-7.11,123.21-34.59,180.21-81.67l1.92,2.32c-57.47,47.46-118.63,75.16-181.79,82.33a274.55,274.55,0,0,1-31.16,1.81c-35.94,0-69.69-7.56-104.26-23.16-39.43-17.79-74.75-43.68-112.14-71.09-50.37-36.92-102.46-75.1-171.1-98.63-66.88-22.93-130.91-25.88-201.5-9.28-63.17,14.85-124.15,43.6-188.72,74-60.4,28.46-122.85,57.89-193.38,79.21-80.14,24.22-158.32,33.74-239,29.12-71.73-4.12-141.16-18.94-212.25-45.3C186.84,920.41,92.42,865.47,0,791.92" transform="translate(0.01 0)"/><path class="cls-6" d="M0,790" transform="translate(0.01 0)"/><path class="cls-6" d="M1624,0" transform="translate(0.01 0)"/><path class="cls-6" d="M1624.27,0a1332.55,1332.55,0,0,0-147.79,111.87c-80.14,70-147.25,145.77-205.18,231.68-50,74.19-85,143.59-115.89,204.82-57.35,113.75-98.78,195.93-192.22,220.18-81.06,21-144.17-21.1-217.25-69.88C663.37,643.56,569.79,581.08,425.32,592.5,214.34,609.17,68.64,712.32,0,773v2l1,1.12c67.93-60.3,213.42-164,424.56-180.62C569,584.17,662.11,646.33,744.27,701.17c60.26,40.22,113.79,76,176.34,76a171.71,171.71,0,0,0,43.33-5.67c94.76-24.59,136.45-107.28,194.15-221.73,30.83-61.15,65.77-130.46,115.69-204.49,57.79-85.7,124.73-161.29,204.67-231.1A1329.27,1329.27,0,0,1,1627.82,1.26L1627,0Z" transform="translate(0.01 0)"/></g><g id="Layer_7" data-name="Layer 7"><circle class="cls-7" cx="1123.01" cy="155" r="25"/><circle class="cls-8" cx="219.01" cy="580" r="17"/><circle class="cls-8" cx="1644.01" cy="1014" r="17"/></g><g id="Layer_8" data-name="Layer 8"><path class="cls-9" d="M349,139.5a.5.5,0,0,1-.5.5H335v13.5a.5.5,0,0,1-1,0V140H319.5a.5.5,0,0,1,0-1H334V124.5a.5.5,0,0,1,1,0V139h13.5A.5.5,0,0,1,349,139.5Z" transform="translate(0.01 0)"/><path class="cls-9" d="M758.25,218a.48.48,0,0,1-.7,0L748,208.41,738.45,218a.48.48,0,0,1-.7,0,.5.5,0,0,1,0-.71l9.54-9.54L737,197.45a.48.48,0,0,1,0-.7.5.5,0,0,1,.71,0L748,207l10.25-10.25a.5.5,0,0,1,.71,0,.48.48,0,0,1,0,.7l-10.25,10.26,9.54,9.54A.5.5,0,0,1,758.25,218Z" transform="translate(0.01 0)"/><path class="cls-9" d="M1750.8,751.21a.5.5,0,0,1-.71,0l-9.54-9.54-9.55,9.54a.5.5,0,0,1-.71,0,.5.5,0,0,1,0-.7l9.55-9.55-10.25-10.25a.5.5,0,0,1,0-.71.48.48,0,0,1,.7,0l10.26,10.25L1750.8,730a.5.5,0,0,1,.71.71L1741.25,741l9.55,9.55A.48.48,0,0,1,1750.8,751.21Z" transform="translate(0.01 0)"/><path class="cls-8" d="M1589.34,290.91a.5.5,0,0,1-.5.5h-13.5v13.5a.5.5,0,1,1-1,0v-13.5h-14.5a.5.5,0,0,1,0-1h14.5v-14.5a.5.5,0,0,1,1,0v14.5h13.5A.5.5,0,0,1,1589.34,290.91Z" transform="translate(0.01 0)"/></g><g id="Layer_10" data-name="Layer 10"><path class="cls-10" d="M1854.81,0l-626.5,489.89a124,124,0,0,1-174.06-21.29h0a124,124,0,0,1,21.3-174.07L1452.21,0" transform="translate(0.01 0)"/><line class="cls-11" x1="559.74" y1="466.7" x2="807.74" y2="309.7"/><line class="cls-12" x1="598.74" y1="914.7" x2="849.74" y2="740.7"/><line class="cls-13" x1="1167.74" y1="683.7" x2="1337.74" y2="570.7"/><circle class="cls-14" cx="1153.01" cy="397" r="78"/></g><g id="Layer_9" data-name="Layer 9"><circle class="cls-15" cx="455.01" cy="344" r="5"/><circle class="cls-15" cx="789.51" cy="553.5" r="2.5"/><circle class="cls-15" cx="207.01" cy="872" r="5"/><circle class="cls-15" cx="1013.01" cy="294" r="5"/><circle class="cls-15" cx="1756.51" cy="451.5" r="2.5"/><circle class="cls-15" cx="1493.01" cy="790" r="5"/></g></svg>