<svg id="Layer_1" data-name="Layer 1" xmlns="http://www.w3.org/2000/svg" viewBox="0 0 235.9 522.9"><defs><style>.cls-1{fill:#fff;}</style></defs><path d="M218.38,437.67c-8.44-.15-16.44-.1-24.4-.6-1.46-.1-3.47-2.14-4.08-3.72-7.18-18.63-14.13-37.35-21.17-56-1-2.55-2-5-3.66-9-3.34,7.62-6.28,13.7-8.65,20-1.38,3.65-3.22,5-7.25,5-20.82-.2-41.64-.15-62.46,0-3.67,0-5.66-1-7-4.61C77.26,382.26,74.26,376,71,368.45c-1.27,2.92-2.11,4.63-2.77,6.4C61,394,53.73,413.15,46.69,432.37c-1.33,3.63-3,5.12-7.15,5-7.27-.27-14.58.3-21.89.52C13,415,8.63,393.3,4.23,371.62c-1-5.06-1.64-10.25-3.19-15.15-2-6.19-.54-10.84,3.63-15.77,13.09-15.51,25.81-31.34,38.46-47.23a9.38,9.38,0,0,0,1.43-6.72c-6.26-34-9.57-68.27-7.78-102.9A315.84,315.84,0,0,1,53.93,94.91c.85-2.41,1.94-3.39,4.57-3.38q59.21.09,118.41-.08c3.86,0,4.64,2.09,5.62,4.89,12.89,36.92,17.82,75,17.09,114a433.84,433.84,0,0,1-8.31,75.89,8.77,8.77,0,0,0,2.05,8.16q20.61,25,40.83,50.45c1.1,1.38,2.14,3.65,1.82,5.23C230.33,379,224.43,407.83,218.38,437.67ZM146.43,206.12a39.8,39.8,0,0,0-.19-56.51C130.73,134.18,104.91,134,90,149.28c-16.17,16.52-16.17,41.2,0,57.25C105.74,222.16,130.62,222,146.43,206.12Z" transform="translate(-0.17 -0.25)"/><path d="M88.44,438.43l-10,17.15a67.69,67.69,0,0,1-2-35.22,36.43,36.43,0,0,1,1.11-3.83c3.72-11.26,6-12.88,17.63-12.85,19.32,0,38.64.14,58,0,3.42,0,5,1.11,6.26,4.17,8.56,21.16,7,42.37.57,63.62-1.19,3.94-2.79,7.75-4.53,12.52-2.52-13-4.86-25.1-7.21-37.18l-1.52,0c1.59,26.92-5.15,51.82-17.43,76.39-12.58-15.85-21.76-32.24-23.83-52l-1.39-.16c-1.31,7.05-2.63,14.1-4,21.63-11.53-16.7-15.47-34.38-10.25-53.92Z" transform="translate(-0.17 -0.25)"/><path d="M61.78,75.85c7.55-16.58,15.76-31.42,26.33-44.72C95.55,21.77,103.82,13,112,4.33c5.19-5.51,6.32-5.28,11.75-.24,20.9,19.41,36.7,42.46,48.74,68.2.41.88.7,1.81,1.62,4.22Z" transform="translate(-0.17 -0.25)"/><path class="cls-1" d="M146.43,206.12c-15.81,15.86-40.69,16-56.44.41-16.18-16.05-16.18-40.73,0-57.25,14.93-15.25,40.75-15.1,56.26.33A39.8,39.8,0,0,1,146.43,206.12Z" transform="translate(-0.17 -0.25)"/></svg>